<?xml version="1.0" encoding="utf-8"?>
<!-- Generator: Adobe Illustrator 19.0.0, SVG Export Plug-In . SVG Version: 6.00 Build 0)  -->
<svg version="1.1" id="Layer_1" xmlns="http://www.w3.org/2000/svg" xmlns:xlink="http://www.w3.org/1999/xlink" x="0px" y="0px"
	 viewBox="0 0 31 31" style="enable-background:new 0 0 31 31;" xml:space="preserve">
<g id="XMLID_47_">
	<polygon id="XMLID_62_" style="fill:#FFFFFF;" points="8.4,17.1 6.1,17.1 6.1,19.8 3.3,19.8 3.3,22.2 6.1,22.2 6.1,25 8.4,25 
		8.4,22.2 11.2,22.2 11.2,19.8 8.4,19.8 	"/>
	<g id="XMLID_48_">
		<g id="XMLID_7_">
			<g id="XMLID_1_">
				<path id="XMLID_3_" style="fill:#FFFFFF;" d="M12.3,16c2.7,2.7,2.8,6.9,0.5,9.7l0,0c-0.5,0.5-0.7,0.7-1.1,1
					c-2.8,2.2-6.9,2.1-9.6-0.5c-2.8-2.8-2.8-7.4,0-10.2C4.9,13.2,9.5,13.2,12.3,16z M11,24.9c2.1-2.1,2.1-5.5,0-7.6
					c-2.1-2.1-5.5-2.1-7.6,0c-2.1,2.1-2.1,5.5,0,7.6S8.9,27.1,11,24.9z"/>
			</g>
			<g id="XMLID_2_">
			</g>
		</g>
		<g id="XMLID_49_">
			<path id="XMLID_51_" style="fill:#FFFFFF;" d="M30.8,9.2L17.2,2.7c-0.2-0.1-0.4,0-0.4,0.1l-3,6.2h1.6l2.2-4.6l11.8,5.7l-3.7,7.7
				l-2.1-1V21l1.3,0.6c0.2,0.1,0.4,0,0.4-0.2L31,9.6C31,9.5,31,9.3,30.8,9.2z"/>
			<path id="XMLID_50_" style="fill:#FFFFFF;" d="M22.4,9.8H7.2c-0.2,0-0.3,0.1-0.3,0.3v4.2c0.3,0,0.7,0,1,0.1
				c0.2,0,0.3,0.1,0.5,0.2v-3.4h13.1v8.6h-8.1c0,0.1,0,0.3,0,0.4c0,1-0.2,2-0.6,2.9c0,0.1-0.1,0.2-0.1,0.3h9.6
				c0.2,0,0.3-0.1,0.3-0.3V10.1C22.7,10,22.5,9.8,22.4,9.8z"/>
		</g>
	</g>
</g>
</svg>
