<?xml version="1.0" encoding="utf-8"?>
<!-- Generator: Adobe Illustrator 19.0.0, SVG Export Plug-In . SVG Version: 6.00 Build 0)  -->
<svg version="1.1" id="Layer_1" xmlns="http://www.w3.org/2000/svg" xmlns:xlink="http://www.w3.org/1999/xlink" x="0px" y="0px"
	 viewBox="0 0 200 147" style="enable-background:new 0 0 200 147;" xml:space="preserve">
<g id="XMLID_1380_">
	<g id="XMLID_1443_">
		<path id="XMLID_1396_" style="fill:#00AEBC;" d="M139.5,49.9C139.4,49.9,139.4,49.9,139.5,49.9l-0.1-0.8c0.8,0,2.2-0.1,2.4-0.1
			c0.2,0,0.7,0.5,0.8,0.8c0.1,0.3,1.1,1.4,1,1.5c-0.1,0.2-0.7,1.2-1,1.2c-0.3,0-1.8-2.3-1.9-2.2C140.5,50.5,139.8,50.1,139.5,49.9z"
			/>
		<path id="XMLID_1394_" style="fill:#00AEBC;" d="M130.1,37.8c0,0,0.6-0.1,0.7-0.1c0.2,0,0-0.9,0-0.9s1.4,0.5,1.6,0.5
			c0.2,0.1,0.7,1.9,0.7,1.9s0.9,0,1.2,0s-0.3,2.9-0.3,3.2c0,0.3,1.5,0,1.5,0s3.5,0.9,3.5,1.2c0,0.4-1.2,2.3-1.4,2.5
			c-0.2,0.2,0,1.8,0.3,1.8c0.3,0,0.7,0.9,0.9,1c0.1,0,0.2,0.1,0.5,0.1l0,0.7c-0.3,0-0.5,1.2-0.6,1.4c-0.2,0.2-4.1,1.6-4.3,1.8
			c-0.2,0.2-1.1,0-1.6-0.4c-0.5-0.4-1.3,2-1.1,2.1c0.2,0.1,2.5-0.4,2.5,0.1c0,0.5-2.7,27.3-2.7,27.6c0,0.4,4.7,10.7,4.7,11
			s-2.2,2.1-2.7,2.5c-0.5,0.3-1.7,0.5-1.9,0.4c-0.3-0.1-0.2-2.2-0.4-2.5c-0.2-0.4-1.2-1.2-1.6-1.4c-0.4-0.2-0.6-1-0.7-1.4
			c-0.1-0.4-1.6-0.6-1.9-0.8c-0.3-0.2-1.6-0.5-2.1-0.7c-0.5-0.3-1.6-3-1.9-3.5c-0.4-0.5-1.8-6.7-1.8-6.9c-0.1-0.2-4.7-4.5-5.3-4.7
			c-0.1,0-0.2-0.1-0.3-0.3c-0.9-1.2-2.9-5.4-3.3-5.7c-0.2-0.2,0.2-2,0.6-3.9c0.5-2.2,1.1-4.6,1.2-4.9c0-0.7-0.2-2.1-0.6-2.3
			c-0.2-0.1-1.9-0.5-3-0.6c-0.5-0.1-0.9-0.1-1.1-0.1c-0.5,0.1-3,2.3-3.3,2.4c-0.4,0.1-3.8-0.5-4.1-0.6c-0.3-0.2-0.8-3.2-1-4.1
			c-0.2-0.9-1.7-4.6-2.3-5.2c-0.6-0.5-2.4-1.1-2.9-1.2s-1.8-0.8-2.4-0.8c-0.6,0-4.1,0.6-4.6,0.8c-0.5,0.2-3.3-0.4-3.8-0.4
			c-0.5,0-3.6,0.4-3.6,0.4s-1.3,0.4-1.7,0.4c-0.4,0-0.5-0.8-0.9-1c-0.4-0.2-2.7,1.7-3.2,1.6c-0.5-0.1-0.7-0.3-1.2-0.6
			C74.1,48.1,73,48,72.8,48c-0.2,0-1.1-3-1.1-3c-0.1-0.3,1.5-1.2,1.5-1.2s2.3-7,2.6-7.1c0.3-0.1,3.8,0.9,3.8,0.9s1.1-0.7,1.4-1.1
			c0.3-0.4-1.6-2.7-2-3.1c-0.4-0.4,0.2-0.5,0-1c-0.1-0.5-2.6-2.4-2.6-2.5c0-0.1,1.3,0,1.3,0s0.8-0.8,1.2-1.2
			c0.4-0.4,1.9,0.6,1.9,0.6s2.2-2.5,2.4-2.6c0.2-0.1-3.4-5.8-3.4-5.9c0-0.1,8.5-6.2,8.5-6.2l1.2,1.4c0,0,2.2,0.5,2.4,0.5
			c0.2,0,3-1.6,3.1-1.6c0.1,0,1.4,0.4,1.8,0.3c0.4-0.2,0.5-0.9,0.5-1.2c0-0.2,0.7-0.5,1.2-0.7c0.5-0.2,0.7-0.7,0.9-0.7
			c0.2,0,0.9-1,0.9-1s1,0.5,1.1,0.6c0.1,0.1,2.1-0.6,2.1-0.6s1.2-3.2,1.2-3.4c0-0.2,0.5-0.4,0.7-0.4c0.2,0.1,1.2-1.2,1.4-1.2
			c0.2,0,0.7,3.5,0.6,3.6c-0.1,0.1,0.7,0.2,0.7,0.2s1.8,7.2,1.8,7.6c0,0.4,0,0.6,0,0.6s0.1,0.9,0.3,1c0.2,0.1,5.6,2.4,5.6,2.6
			c0,0.2-0.2,0.8-0.2,0.9c0,0.1,3.8,1.8,4.1,2.1c0.2,0.2,0.7,3,0.7,3s1,1.3,0.9,1.6c-0.1,0.3,0.4,0.6,0.4,1.1c0,0.5-1.7,0.8-1.7,0.8
			s0,2.7,0,2.8c0,0.2,1-0.3,1-0.3l0.1,0.7c0,0,0.4,0.7,0.5,0.7c0.2,0,0.7-0.9,0.7-0.9l1.3,1.2l-0.3,0.4l-0.3,1.3l-0.4-0.2
			c0,0-0.3,0.8-0.3,1c0,0.2,0.8,0.6,0.8,0.6l-0.1,0.5l-0.4-0.1c0,0-0.6,0.9-0.5,1.1c0.1,0.2,6,3.1,6,3.1s1.4-0.6,1.6-0.5
			c0.1,0-0.3-2.1-0.3-2.1s-0.2-0.5-0.6-0.7c-0.4-0.2,0.6-1,0.6-1l-0.3-1.5c0,0-0.7-0.7-0.9-0.9c-0.2-0.2,1.1-0.6,1.3-0.7
			C130,36.4,130.1,37.8,130.1,37.8z"/>
		<path id="XMLID_1392_" style="fill:#00AEBC;" d="M90.8,51.4c-0.1,0-1.7-1.5-1.8-1.7c-0.1-0.1,0.3-1,0.4-1.1c0.1-0.1,0.6,0,0.8-0.1
			c0.2,0,0.7-0.4,0.8-0.5c0.1-0.1,1.1,0,1.6,0c0.4,0,2.5,0.3,2.5,0.5c0,0.2-1.5,1.2-1.8,1.3C92.8,49.9,90.9,51.4,90.8,51.4z"/>
		<path id="XMLID_1390_" style="fill:#00AEBC;" d="M88.5,50.3c0.4-0.2,1.8,1.1,1.8,1.4c0,0.2-0.3,1.4-0.3,1.6c0,0.2-1.6,0.9-1.9,0.9
			s-2.3-0.4-2.5-0.4c-0.2,0-2.1,0-2.6,0s-1.5-0.9-1.5-0.9s-0.4,0.2-0.7,0.3c-0.3,0.1-0.9-0.3-1.1-0.4c-0.2-0.1-1.5-1-2.2-1.1
			c-0.8-0.2-0.5-0.3-0.4-0.4c0.2-0.1,0.5-0.7,0.8-1c0.3-0.3,3.9,0.1,4.3,0.4c0.4,0.2,1.6-0.4,1.6-0.4s3,0.5,3.4,0.6
			S88.1,50.5,88.5,50.3z"/>
		<path id="XMLID_1389_" style="fill:#00AEBC;" d="M82,54.4c-0.3-0.3,2.6,0.2,3.1,0.2c0.5,0,1.6,0.2,2-0.1c0.4-0.3,2.3,0.2,2.6,0.2
			s1.3-2.3,1.6-2.6c0.4-0.3,4.3-2.9,4.8-3c0.6-0.1,1.6,0.7,1.8,0.7c0.2,0.1,1.9,3.2,2.2,3.6c0.2,0.4,0.2,2.5,0.1,2.9
			c-0.1,0.5,0.7,1.9,0.8,2.2c0,0.3-3.8,2.2-4.1,2.4c-0.4,0.2-1.4-0.4-1.4-0.4s-1,0.6-1.2,0.7s-2.1-0.5-2.4-0.7
			c-0.4-0.2-1.1-1.2-1.5-1.6c-0.4-0.4-0.9,0-1.3,0c-0.4,0.1-1.8-1.6-2.3-1.8c-0.5-0.2-1.3-0.5-1.8-0.5C84.5,56.7,82,54.4,82,54.4z"
			/>
		<path id="XMLID_1387_" style="fill:#00AEBC;" d="M87.6,50.4c-0.1,0-2.5-0.3-2.8-0.4c-0.2-0.1-0.8-0.5-1-0.7
			c-0.2-0.2-1.5-0.2-1.8-0.2c-0.8,0.1-0.3-0.3-0.2-0.5c0.1-0.2,2-0.5,2.2-0.5c0.1,0,0.9-0.2,1.1-0.2c0.3,0,3.6,0.3,3.6,0.5
			C88.7,48.7,87.6,50.4,87.6,50.4z"/>
		<path id="XMLID_1384_" style="fill:#00AEBC;" d="M94.6,62.1c0.4,0.2,0.7,0.7,0.7,0.7s-3.7,2.7-4,2.8c-0.4,0.1-2.6,1.1-2.6,1.5
			c0,0.4-1.7,4.4-2.1,4.6S85,71.9,85,71.9s-0.2-0.7-0.7-0.8c-0.5-0.1-1.7-0.5-1.8-0.7c-0.1-0.2-1.4-1.1-1.4-1.3s0-0.6-0.1-0.8
			c0-0.2-0.5-0.5-0.5-0.6c0-0.2,0.4-1.4,0-0.9c-0.4,0.5-0.9,1.6-1.1,1.6c-0.2-0.1-1.2-0.5-1.4-0.6c-0.2-0.1-1.3-2.3-1.5-2.3
			c-0.2,0.1,0.2,1.5,0,1.5c-0.2,0-1.5-0.7-1.6-0.3c-0.1,0.4-0.6,1.1-0.8,0.9c-0.2-0.2-0.1-1.2,0-1.5c0.1-0.3-0.7-2.4-0.9-2.5
			c-0.3,0-1.9-0.1-1.9-0.1S71,63.1,70.9,63c0-0.1-0.5-0.9-0.3-1c0.2-0.1,2.3,0.7,2.5,0.4c0.2-0.3,0.8-2.7,0.4-2.7
			c-0.4,0-2.7-1.2-2.2-1.5c0.5-0.3,4.4,2.1,4.7,1.5c0.2-0.5,0.5-3,1.3-3.5c0.8-0.4,2.5-0.9,3-0.7c0.5,0.2,1.4,1.5,1.7,1.6
			c0.3,0,3.1,0.2,3.3,0.3c0.2,0.1,3,1.9,3,2c0,0.1,0.3,0.6,0.3,0.6s0.8,0,1,0.1c0.2,0.1,2.4,1.9,2.8,1.9
			C92.9,62,94.2,61.9,94.6,62.1z"/>
		<path id="XMLID_1383_" style="fill:#00AEBC;" d="M137.9,109.4c0,0-0.3-0.3-0.4-0.3c-0.1,0-2.4,2.9-2.5,3.1c-0.1,0.2-1,0.3-1.2,0.3
			c-0.1,0-5.8-8-5.8-8s-0.3,0-0.4,0c-0.1,0-0.2-0.2-0.2-0.2l-3.7,0.7c0,0,2.2,5.5,2,5.6c-0.2,0-2.5-0.3-2.7-0.3
			c-0.1,0-1.5-3.8-1.5-3.8c-0.1,0-3,0.3-3.2,0.3c-0.2,0.1-10.4,4-10.7,3.9c-0.3-0.1-6.1,0-6.3,0c-0.2,0-1.5,0.2-1.7,0.3
			c-0.2,0.1-0.4,0.7-0.7,1c-0.3,0.3-0.6,0.3-0.6,0.3l0.1,1.9c0,0,0.8-0.4,0.9-0.4c0.1-0.1,1.6,2.8,1.6,2.8s-0.2,0.5-0.5,0.6
			c-0.2,0.1-0.8,0-1,0c-0.2,0-0.9,0.2-0.9,0.2s0.5,1.5,0.5,1.8c0,0.3-0.5,1.5-0.5,1.5s0,2.5-0.1,2.6c-0.1,0.1,0.6-0.1,0.7,0.1
			c0.1,0.2,0,1.8,0,2c0,0.2-0.4,0-0.5,0.1c-0.1,0,0,0.7,0.2,1.1s2.3,2.2,2.3,2.2s-0.2,0.7-0.2,0.7s-0.4-0.1-0.7,0
			c-0.2,0.1-0.3,0.5-0.3,0.5s-0.3,0-0.4,0s-1.4,3.6-1.4,3.6s0.3,0.3,0.3,0.5c0,0.2-1.6,2.9-1.6,3c0,0.1-0.7,0.2-0.9,0.3
			c-0.2,0-0.6,1-0.6,1s-6.6-4.3-6.8-4.4c-0.1-0.1,2.6-3.7,2.8-3.8c0.2-0.1,0.7,0.5,0.8,0.5s2.4-2.9,2.4-2.9s1.3,0.4,1.4,0.4
			c0.1-0.1,0.9-1.9,0.9-1.9v-1.4c0,0-3-2.9-3-2.9c-0.1,0-0.4,0.8-0.5,0.9c-0.2,0.1-16.4-4.7-16.4-4.7c-0.3-0.1,4-2.9,4.2-3
			s2.2-5.8,2.2-6.2c0-0.3,3.5-3.9,3.5-4c-0.1,0-8.8,3.6-9.1,3.8c-0.3,0.2-7.8-0.2-8.2-0.2s-1.9,1.8-2,1.8c-0.1,0.1-1.7-0.5-1.9-0.6
			c-0.2,0,0.3,2.4,0.3,2.4s-1.2,1.8-1.3,1.9c-0.1,0-0.4-0.2-0.6-0.2s-0.3,0.3-0.3,0.3s0,0.8-0.1,1c-0.1,0.3-0.4,0.3-0.4,0.4
			c0,0.1,2.5,0.2,2.5,0.2s-0.9,1.7-1.1,1.7s-0.5-0.4-0.5-0.4s-0.6-0.1-1.1-0.1s-0.9,1.5-0.9,1.5s-0.8-0.4-1.1-0.4
			c-0.3,0,0.2-0.7,0.2-0.7s-1.5-0.8-1.6-1s1.1-2.1,1.1-2.3c0-0.2-5.1-3.2-5.1-3.6c-0.1-0.4,0-1.1,0-1.2c0-0.2,0.9,0.3,1.5,0.6
			c0.6,0.3,1-1.1,1-1.2c0.1-0.1,0.7,0.2,0.8,0.2c0.1,0,0.1-1.2,0.1-1.4c0-0.1,1-0.6,1-0.6s-0.2-3.4-0.2-3.6c0-0.2-0.7-0.2-0.7-0.2
			s0,0,0-0.6c-0.1-0.6-1.1-0.1-1.1-0.2c-0.1-0.1,0.3-1.2,0.3-1.4c0-0.2-1.6-0.3-2-0.3c-0.4-0.1-1.1-0.4-1.4-0.5
			c-0.3-0.2,0.2-0.9,0-1.2c-0.1-0.3-1-0.3-1.2-0.4c-0.2-0.1-0.1-0.6-0.1-0.6c0-0.1,1.4-0.8,1.4-1.1c0.1-0.3-0.3-0.8-0.4-1.1
			c-0.1-0.2-0.6,0.1-0.8-0.1c-0.2-0.2,0-0.6,0.2-0.7s0.3-0.5,0.3-1c0-0.5,0.4,0.1,0.6,0.1c0.2,0,0.5-0.4,0.6-0.6
			c0.1-0.2,6.4,0.9,6.7,0.9c0.3,0.1,1.4-0.8,1.5-0.9c0.1-0.1,2.1,1.5,2.2,1.8c0.1,0.3,0.7,1.6,1,1.5c0.3-0.1-0.4-1.2-0.5-1.3
			c-0.1-0.1,1.4-1.7,1.6-1.8c0.2-0.1,0.9-2,0.9-2.2c0-0.2,1-0.3,1-0.3c0-0.1-2.3-1.1-2.4-1.3C67.4,89,68.6,87,68.6,87l-0.4-0.6
			c0,0,0.8-1.1,0.8-1.4c0-0.3-0.4-0.6-0.3-0.9c0.1-0.3,4.5-0.4,4.7-0.5c0.2-0.1,0.5-1.5,0.6-1.8s2.4-2.1,2.5-2.3
			c0.1-0.2,0.8-1,0.9-1.1c0.1-0.1,0.4-0.8,0.4-0.9c0.1-0.1-1.5-1.6-1.5-1.8c-0.1-0.2,1.3-2.6,1.4-2.6c0.1,0,1.8,1.1,1.9,1.1
			c0.1,0,1.1-0.2,1.1-0.2s0.6,0.3,1,0.5c0.4,0.2,0.3-0.5,0.6-0.7c0.3-0.2,2.1,0,2.4-0.1c0.4-0.1,2.3-0.6,2.6-1
			c0.3-0.4,2-4.5,2.2-4.9c0.2-0.4,2.9-1.3,3.1-1.4c0.2-0.1,3.5-2.8,4-3.1c0.5-0.4,6.4-3.1,6.6-3.2c0.2-0.1,2.8,0.4,3.1,0.3
			c0.3-0.1,1.1-0.5,1.7-0.7s2.2-1.8,2.5-1.8c0,0,0,0,0,0c0.4,0.1,2.3,1.8,2.4,2.1c0.1,0.3-0.5,4.2-0.5,4.5c0,0,0,0.1,0,0.2
			c-0.2,0.7-1.3,2.7-1.4,3.2c-0.2,0.5,1,3.2,1.2,3.6c0.1,0.2,1.5,1.9,2.7,3.3c1,1.1,1.8,2.2,1.9,2.3c0.2,0.3,3.1,2.5,3.3,3
			c0.2,0.5,1.1,3.9,1.1,4.3c0,0.4,0.7,2.3,1,2.8c0.3,0.4,0.9,2.2,0.9,2.2s1.6,1.6,1.8,1.7c0.3,0.2,2.4,0.8,2.8,0.8
			c0.4,0,2.7,3.5,2.7,3.7c0.1,0.2-0.5,3.9-0.5,4.3c-0.1,0.4,1.7,1.4,1.7,1.4s0.8-0.2,0.9-0.2c0.2,0,3,2.3,3,2.3
			c0.1,0,0.2,0.7,0.3,0.8c0.1,0.1,2.2,0.9,2.5,1.1c0.2,0.1,1,0,1.1,0.2c0.1,0.1,2.2-0.8,2.4-1c0.2-0.2,0.9-0.4,1-0.4
			c0.1,0,0.5,0.4,0.5,0.7c0,0.2-0.3,1.6-0.3,1.8c0,0.2,0.2,0.8,0.2,1c0,0.2-2.8,2.4-2.9,2.5c-0.2,0-1-0.4-1-0.5
			c-0.1-0.1-0.8-0.2-0.8-0.2L137.9,109.4z"/>
	</g>
	<g id="XMLID_1442_">
	</g>
</g>
</svg>
